<?xml version="1.0" encoding="UTF-8"?>
<svg id="Camada_1" xmlns="http://www.w3.org/2000/svg" version="1.1" xmlns:xlink="http://www.w3.org/1999/xlink" viewBox="0 0 1908 280">
  <!-- Generator: Adobe Illustrator 29.3.1, SVG Export Plug-In . SVG Version: 2.1.0 Build 151)  -->
  <defs>
    <style>
      .st0 {
        fill: none;
      }

      .st1 {
        clip-path: url(#clippath-1);
      }

      .st2 {
        isolation: isolate;
      }

      .st3 {
        clip-path: url(#clippath-3);
      }

      .st4 {
        clip-path: url(#clippath-2);
      }

      .st5 {
        clip-path: url(#clippath);
      }
    </style>
    <clipPath id="clippath">
      <path class="st0" d="M984.5,241.5c0,2.1-.5,4.1-1.5,5.9-1,1.9-2.6,3.4-4.7,4.5s-4.9,1.7-8.3,1.7h-7.4v16.7h-6.7v-41.1h14.2c3.2,0,5.8.5,8,1.6,2.2,1.1,3.8,2.6,4.9,4.4,1.1,1.9,1.6,3.9,1.6,6.2h0ZM970,248.2c2.6,0,4.5-.6,5.7-1.7s1.9-2.8,1.9-4.9c0-4.5-2.5-6.7-7.6-6.7h-7.4v13.4h7.4ZM1010.4,270.7c-2.8,0-5.2-.5-7.4-1.5-2.2-1-3.9-2.3-5.2-4.1-1.3-1.8-1.9-3.8-1.9-6.2h7.2c.2,1.8.9,3.2,2.1,4.4,1.2,1.1,3,1.7,5.2,1.7s4.1-.6,5.4-1.7c1.3-1.1,2-2.6,2-4.3s-.4-2.5-1.2-3.4-1.8-1.5-3-2-2.9-1-5-1.5c-2.7-.7-4.8-1.4-6.5-2.2-1.7-.7-3.1-1.9-4.3-3.4-1.2-1.5-1.8-3.6-1.8-6.1s.6-4.4,1.8-6.2,2.8-3.1,5-4.1c2.1-.9,4.6-1.4,7.4-1.4,4,0,7.2,1,9.8,3,2.5,2,4,4.7,4.2,8.2h-7.4c-.1-1.5-.8-2.8-2.1-3.8s-3-1.6-5.1-1.6-3.5.5-4.7,1.5c-1.2,1-1.8,2.4-1.8,4.2s.4,2.3,1.2,3.1c.8.8,1.7,1.4,2.9,1.9s2.8,1,4.8,1.5c2.7.8,4.9,1.5,6.7,2.2,1.7.8,3.2,1.9,4.4,3.5,1.2,1.6,1.8,3.6,1.8,6.2s-.6,4.1-1.7,5.9-2.8,3.3-4.9,4.5c-2.2,1.1-4.7,1.7-7.6,1.7h0ZM1045.2,229.3v41.1h-6.7v-41.1h6.7ZM1057.7,249.7c0-4,.9-7.6,2.8-10.8,1.9-3.2,4.4-5.7,7.6-7.5,3.2-1.8,6.7-2.7,10.5-2.7s8.3,1.1,11.7,3.2,5.9,5.2,7.4,9.1h-8.1c-1.1-2.2-2.5-3.8-4.4-4.8s-4.1-1.6-6.6-1.6-5.1.6-7.3,1.8-3.8,3-5,5.3c-1.2,2.3-1.8,4.9-1.8,8s.6,5.7,1.8,8c1.2,2.3,2.9,4,5,5.3,2.1,1.2,4.6,1.9,7.3,1.9s4.7-.5,6.6-1.6c1.9-1.1,3.4-2.7,4.4-4.8h8.1c-1.5,3.9-4,7-7.4,9.1-3.4,2.1-7.3,3.2-11.7,3.2s-7.4-.9-10.6-2.7-5.7-4.3-7.6-7.5-2.8-6.8-2.8-10.8h0ZM1130.2,270.7c-3.8,0-7.3-.9-10.5-2.7-3.2-1.8-5.8-4.3-7.6-7.5s-2.8-6.8-2.8-10.8.9-7.6,2.8-10.8c1.9-3.2,4.4-5.7,7.6-7.5,3.2-1.8,6.7-2.7,10.5-2.7s7.4.9,10.6,2.7c3.2,1.8,5.7,4.3,7.6,7.5s2.8,6.8,2.8,10.8-.9,7.6-2.8,10.8-4.4,5.7-7.6,7.5-6.7,2.7-10.6,2.7ZM1130.2,264.9c2.7,0,5.1-.6,7.3-1.9s3.8-3,5-5.3c1.2-2.3,1.8-5,1.8-8s-.6-5.7-1.8-8c-1.2-2.3-2.9-4-5-5.3s-4.6-1.8-7.3-1.8-5.1.6-7.3,1.8-3.8,3-5,5.3c-1.2,2.3-1.8,4.9-1.8,8s.6,5.7,1.8,8c1.2,2.3,2.9,4.1,5,5.3,2.1,1.2,4.6,1.9,7.3,1.9ZM1136.3,220.5l-13.1,6.4v-5l13.1-7.2v5.7h0ZM1170.4,264.9h13.9v5.4h-20.6v-41.1h6.7v35.6h0ZM1214.6,270.7c-3.8,0-7.3-.9-10.5-2.7-3.2-1.8-5.8-4.3-7.6-7.5s-2.8-6.8-2.8-10.8.9-7.6,2.8-10.8c1.9-3.2,4.4-5.7,7.6-7.5,3.2-1.8,6.7-2.7,10.5-2.7s7.4.9,10.6,2.7c3.2,1.8,5.7,4.3,7.6,7.5s2.8,6.8,2.8,10.8-.9,7.6-2.8,10.8-4.4,5.7-7.6,7.5-6.7,2.7-10.6,2.7ZM1214.6,264.9c2.7,0,5.1-.6,7.3-1.9s3.8-3,5-5.3c1.2-2.3,1.8-5,1.8-8s-.6-5.7-1.8-8c-1.2-2.3-2.9-4-5-5.3s-4.6-1.8-7.3-1.8-5.1.6-7.3,1.8-3.8,3-5,5.3c-1.2,2.3-1.8,4.9-1.8,8s.6,5.7,1.8,8c1.2,2.3,2.9,4.1,5,5.3,2.1,1.2,4.6,1.9,7.3,1.9ZM1277.8,241.1c-1.1-2.1-2.5-3.6-4.4-4.6-1.9-1-4.1-1.6-6.6-1.6s-5.1.6-7.3,1.8-3.8,2.9-5,5.2c-1.2,2.2-1.8,4.8-1.8,7.8s.6,5.6,1.8,7.8c1.2,2.3,2.9,4,5,5.2s4.6,1.8,7.3,1.8,6.6-1,8.9-3.1c2.3-2,3.7-4.8,4.2-8.3h-15.4v-5.4h22.6v5.3c-.4,3.2-1.6,6.1-3.4,8.8-1.8,2.7-4.2,4.8-7.2,6.4-2.9,1.6-6.2,2.4-9.8,2.4s-7.4-.9-10.6-2.7-5.7-4.3-7.6-7.5-2.8-6.8-2.8-10.8.9-7.6,2.8-10.8c1.9-3.2,4.4-5.7,7.6-7.5,3.2-1.8,6.7-2.7,10.5-2.7s8.3,1.1,11.7,3.2,5.9,5.2,7.4,9.1h-8.1,0ZM1324.4,261.9h-17.2l-2.9,8.4h-7l14.7-41.1h7.8l14.7,41.1h-7.1l-2.9-8.4h0ZM1322.5,256.4l-6.7-19.1-6.7,19.1h13.4ZM1365.5,249.6c0-4.1.9-7.8,2.6-11s4.1-5.7,7.1-7.5,6.4-2.7,10.1-2.7,8.7,1.1,11.9,3.3c3.2,2.2,5.6,5.3,7.1,9.3h-3.1c-1.2-3.1-3.1-5.6-5.9-7.5s-6.1-2.8-10.1-2.8-6.1.8-8.7,2.3c-2.6,1.5-4.7,3.7-6.1,6.6-1.5,2.9-2.2,6.2-2.2,10s.8,7.1,2.2,9.9c1.5,2.8,3.5,5,6.1,6.5s5.5,2.3,8.7,2.3,7.3-.9,10.1-2.8,4.7-4.3,5.9-7.5h3.1c-1.5,4-3.9,7.1-7.1,9.3-3.2,2.2-7.2,3.3-11.9,3.3s-7.1-.9-10.1-2.7-5.4-4.3-7.1-7.5-2.6-6.8-2.6-10.9h0ZM1440.9,270.3l-10.6-17.7h-9.1v17.7h-2.7v-41.5h11.4c4.6,0,8.1,1.1,10.4,3.2,2.3,2.2,3.5,5,3.5,8.6s-.9,5.8-2.7,7.9c-1.8,2.1-4.4,3.3-7.8,3.8l10.9,17.9h-3.2ZM1421.1,250.4h8.9c3.7,0,6.4-.9,8.2-2.7,1.8-1.8,2.7-4.1,2.7-7,0-6.3-3.7-9.5-11.1-9.5h-8.7v19.2h0ZM1482.6,240.5c0,3.7-1.1,6.5-3.4,8.5-2.3,2-5.7,3-10.2,3h-8.9v18.2h-2.7v-41.5h11.5c4.6,0,8,1.1,10.2,3.2s3.4,4.9,3.4,8.5h0ZM1469.1,249.8c7.3,0,10.9-3.1,10.9-9.2s-.9-5.4-2.6-6.9c-1.7-1.6-4.5-2.4-8.3-2.4h-8.9v18.6h8.9,0ZM1517.4,249.1c0-6.8,1-12.1,2.9-15.7,2-3.7,5.6-5.5,10.9-5.5s8.8,1.8,10.8,5.5c2,3.7,2.9,8.9,2.9,15.7s-1,12.2-2.9,15.9-5.6,5.6-10.8,5.6-8.9-1.9-10.9-5.6-2.9-9-2.9-15.9ZM1542.4,249.1c0-3.9-.3-7.3-.9-10-.6-2.7-1.7-4.9-3.3-6.5-1.6-1.6-4-2.4-7-2.4s-5.4.8-7,2.4c-1.6,1.6-2.7,3.8-3.3,6.5-.6,2.7-.9,6.1-.9,10s.3,7.4.9,10.1,1.7,4.9,3.3,6.5c1.6,1.6,4,2.4,7,2.4s5.4-.8,7-2.4c1.6-1.6,2.7-3.8,3.3-6.5.6-2.7.9-6.1.9-10.1h0ZM1583.9,238.9c-.4-2.8-1.5-5-3.1-6.6s-3.9-2.3-6.8-2.3c-4.1,0-7.2,1.5-9.3,4.5-2.2,3-3.2,7.8-3.2,14.5v2.3c.7-2.7,2.2-4.9,4.6-6.5s5.2-2.4,8.4-2.4,7.6,1.3,10,3.8,3.6,6.1,3.6,10.5-.5,4.8-1.4,6.9c-.9,2.1-2.4,3.8-4.5,5-2.1,1.3-4.6,1.9-7.7,1.9-5.9,0-9.9-1.9-12.1-5.6s-3.2-8.9-3.2-15.4,1.2-12.5,3.5-16.2c2.3-3.8,6.1-5.7,11.4-5.7s6.6,1,8.7,3c2.1,2,3.4,4.7,3.8,8.1h-2.5ZM1574,244.7c-2,0-3.9.4-5.8,1.2-1.8.8-3.4,2.1-4.5,3.8s-1.7,3.7-1.7,6.1.4,4.3,1.3,6.2,2.2,3.5,4.1,4.6c1.8,1.2,4.2,1.7,6.9,1.7s6.1-1,8.1-3.1c2-2,3-4.9,3-8.5s-1-6.8-3-8.9-4.8-3.2-8.4-3.2h0ZM1618.8,215l-16.4,64.9h-2.7l16.3-64.9h2.7ZM1630,268.4c7.4-5.1,13.2-10.1,17.5-14.8,4.3-4.8,6.4-9.3,6.4-13.7s-.8-5.2-2.3-7c-1.5-1.8-4-2.7-7.4-2.7s-6.1,1-7.9,3.1c-1.8,2.1-2.8,4.8-3.1,8.3h-2.6c.3-4.3,1.6-7.7,4-10.1,2.4-2.4,5.6-3.6,9.5-3.6s6.5,1,8.8,3c2.3,2,3.5,5,3.5,9s-2.3,9.9-6.8,14.9c-4.5,5-9.7,9.4-15.4,13.2h23.6v2.2h-27.9v-1.8h0ZM1667.9,230.7v-2.4h8.7v42h-2.7v-39.6h-6.1ZM1689.2,230.7v-2.4h8.7v42h-2.7v-39.6h-6.1ZM1712.8,239.3c.3-3.6,1.7-6.4,4.2-8.4s5.6-3.1,9.6-3.1,4.8.5,6.6,1.4,3.2,2.2,4.1,3.8c.9,1.6,1.4,3.4,1.4,5.4s-.8,4.7-2.3,6.5c-1.5,1.8-3.9,2.9-7,3.3v.4c3,.5,5.5,1.6,7.3,3.5,1.8,1.9,2.8,4.3,2.8,7.4s-1.1,6-3.3,8.1c-2.2,2.1-5.4,3.2-9.6,3.2s-7.3-1.1-9.8-3.2-4.1-5.1-4.6-9h2.6c.5,2.9,1.7,5.3,3.8,7.1s4.7,2.8,8.1,2.8,6-.9,7.7-2.5,2.6-3.9,2.6-6.6-1.2-5.6-3.7-7.3c-2.5-1.6-6-2.4-10.5-2.4h-1.1v-2.3h1.2c8.9,0,13.3-2.9,13.3-8.7s-.8-4.6-2.5-6.1c-1.7-1.5-4-2.3-7.1-2.3s-5.4.8-7.5,2.3c-2,1.6-3.2,3.9-3.6,6.9h-2.6ZM1778.2,238.9c-.4-2.8-1.5-5-3.1-6.6s-3.9-2.3-6.8-2.3c-4.1,0-7.2,1.5-9.3,4.5-2.2,3-3.2,7.8-3.2,14.5v2.3c.7-2.7,2.2-4.9,4.6-6.5s5.2-2.4,8.4-2.4,7.6,1.3,10,3.8,3.6,6.1,3.6,10.5-.5,4.8-1.4,6.9c-.9,2.1-2.4,3.8-4.5,5-2.1,1.3-4.6,1.9-7.7,1.9-5.9,0-9.9-1.9-12.1-5.6s-3.2-8.9-3.2-15.4,1.2-12.5,3.5-16.2c2.3-3.8,6.1-5.7,11.4-5.7s6.6,1,8.7,3c2.1,2,3.4,4.7,3.8,8.1h-2.5,0ZM1768.3,244.7c-2,0-3.9.4-5.8,1.2-1.8.8-3.4,2.1-4.5,3.8s-1.7,3.7-1.7,6.1.4,4.3,1.3,6.2,2.2,3.5,4.1,4.6c1.8,1.2,4.2,1.7,6.9,1.7s6.1-1,8.1-3.1c2-2,3-4.9,3-8.5s-1-6.8-3-8.9-4.8-3.2-8.4-3.2h0ZM1793.1,230.7v-2.4h8.7v42h-2.7v-39.6h-6.1ZM1842,238.9c-.4-2.8-1.5-5-3.1-6.6s-3.9-2.3-6.8-2.3c-4.1,0-7.2,1.5-9.3,4.5-2.2,3-3.2,7.8-3.2,14.5v2.3c.7-2.7,2.2-4.9,4.6-6.5s5.2-2.4,8.4-2.4,7.6,1.3,10,3.8,3.6,6.1,3.6,10.5-.5,4.8-1.4,6.9c-.9,2.1-2.4,3.8-4.5,5-2.1,1.3-4.6,1.9-7.7,1.9-5.9,0-9.9-1.9-12.1-5.6s-3.2-8.9-3.2-15.4,1.2-12.5,3.5-16.2c2.3-3.8,6.1-5.7,11.4-5.7s6.6,1,8.7,3c2.1,2,3.4,4.7,3.8,8.1h-2.5ZM1832.1,244.7c-2,0-3.9.4-5.8,1.2-1.8.8-3.4,2.1-4.5,3.8s-1.7,3.7-1.7,6.1.4,4.3,1.3,6.2,2.2,3.5,4.1,4.6c1.8,1.2,4.2,1.7,6.9,1.7s6.1-1,8.1-3.1c2-2,3-4.9,3-8.5s-1-6.8-3-8.9-4.8-3.2-8.4-3.2h0ZM1856.9,230.7v-2.4h8.7v42h-2.7v-39.6h-6.1ZM1880.6,239.3c.3-3.6,1.7-6.4,4.2-8.4s5.6-3.1,9.6-3.1,4.8.5,6.6,1.4,3.2,2.2,4.1,3.8c.9,1.6,1.4,3.4,1.4,5.4s-.8,4.7-2.3,6.5c-1.5,1.8-3.9,2.9-7,3.3v.4c3,.5,5.5,1.6,7.3,3.5,1.8,1.9,2.8,4.3,2.8,7.4s-1.1,6-3.3,8.1c-2.2,2.1-5.4,3.2-9.6,3.2s-7.3-1.1-9.8-3.2-4.1-5.1-4.6-9h2.6c.5,2.9,1.7,5.3,3.8,7.1s4.8,2.8,8.1,2.8,6-.9,7.7-2.5,2.6-3.9,2.6-6.6-1.2-5.6-3.7-7.3c-2.5-1.6-6-2.4-10.5-2.4h-1.1v-2.3h1.2c8.9,0,13.3-2.9,13.3-8.7s-.8-4.6-2.5-6.1c-1.7-1.5-4-2.3-7.1-2.3s-5.4.8-7.5,2.3c-2,1.6-3.2,3.9-3.6,6.9h-2.6Z"/>
    </clipPath>
    <clipPath id="clippath-1">
      <rect class="st0" x="1.1" y="-.1" width="1908" height="280"/>
    </clipPath>
    <clipPath id="clippath-2">
      <path class="st0" d="M48.5,1.9c28.9,0,57.9,13.5,72.1,41.4,5.3,10.5,7.9,21.8,7.9,33.8s-2.8,24-8.4,34.6c-14.5,27.5-43.2,40.3-71.7,40.3H.8v-5l1-.6c3.3-2,3.3-6.8,3.3-10.2V18c0-3.5,0-8.1-3.3-10.2l-1-.6V1.9h47.7ZM24.8,8.2v137.9h23.6c36.9,0,60.5-30.9,60.5-69.1S85.4,8.2,48.5,8.2h-23.6ZM164.8,102.6l-4.3,12.6c-3.5,10.7-7.7,22.7.4,32l.6.7v4.1h-24.2v-4.1c9.4-10.5,13.9-20.5,18.3-34l25.7-77.4,5.9-17.9h5.3l34.2,95c4.9,12.9,9.4,23.1,17.7,33.8l.4.4v4.1h-30.4v-4.1l.6-.7c.6-.6,1.2-1.3,1.4-2.2,2.2-5-1.8-15.7-3.7-20.3l-7.9-22.2h-40.2ZM184.1,44.4l-17.5,52.3h36.3l-18.8-52.3ZM278.8,130.7c1,6.1,4.9,13.5,9.8,16.1l1,.7v4.6h-27.1v-4.6l1.2-.7c4.9-2.6,8.8-10,9.8-16.1V43.3c0-7.2-3.5-16.1-9.8-19.6l-1.2-.4v-4.6h20.4l75.2,102V40.7c-.6-6.3-4.7-14-9.6-16.8l-1-.4v-4.8h26.9v4.8l-1,.4c-5.1,2.8-9,10.7-9.8,16.8v111.3h-5.5l-79.3-108.3v86.9ZM413.4,137.9c0,4.6,0,7.2,3.9,9.6v4.6h-25.1v-4.4c3.7-2.6,3.7-5.4,3.7-9.8V33.1c0-4.4,0-7.4-3.7-9.8v-4.6h25.1v4.6c-3.9,2.4-3.9,5.2-3.9,9.8v104.8ZM450.9,78.6v68h12.2c27.3,0,41.4-15.7,45.5-25.9l-4.9,31.4h-74v-4.4l.8-.6c2.9-2,3.1-6.1,3.1-9.1V32.9c0-3-.2-7.4-3.1-9.1l-.8-.6v-4.4h71.5l3.1,29.6c-4.9-8.9-13.9-24.4-41.2-24.4h-12.2v47.5h17.9c7.1,0,12-1.1,14.7-3.5,3.7-2.8,6.3-8.1,8.1-15.7h3.3l-11.4,56c.2-6.3.2-20.7-.4-22.4-.6-2.2-2.2-4.1-4.5-5.4-2.2-1.1-5.9-1.7-11-1.7h-16.7,0ZM545.7,146.6h13.9c26.3,0,39.9-17.2,43.6-25.9l-4.7,31.4h-74.2v-4.6l1-.4c2.8-2,2.8-5.9,2.8-9.2V33.1c0-3.3,0-7.4-2.8-9.1l-1-.6v-4.6h25.1v4.6l-.8.6c-2.8,1.7-2.8,5.9-2.8,9.1v113.5h0ZM646.5,102.6l-4.3,12.6c-3.5,10.7-7.7,22.7.4,32l.6.7v4.1h-24.2v-4.1c9.4-10.5,13.9-20.5,18.3-34l25.7-77.4,5.9-17.9h5.3l34.2,95c4.9,12.9,9.4,23.1,17.7,33.8l.4.4v4.1h-30.4v-4.1l.6-.7c.6-.6,1.2-1.3,1.4-2.2,2.2-5-1.8-15.7-3.7-20.3l-8-22.2h-40.2,0ZM665.9,44.4l-17.5,52.3h36.3l-18.8-52.3ZM930.6,20l1,1.1-11,24.6c-2.2-16.3-18.5-38.4-39.1-38.4s-28.1,6.5-29.5,22c-3.5,38.8,79.9,26.1,79.9,79.8s-25.7,44.4-50.5,44.4-34.4-10.2-45.8-23.1l10.8-26.8c5.5,18.7,18.1,41.2,43,41.2s28.1-8.1,29.8-22.4c.6-5.2,0-10-2.5-14.4-6.5-11.8-26.3-18.3-37.5-23.3-19.6-8.3-38.7-18.7-38.7-44.4s4.1-19.8,11-27c9.4-9.6,22.4-13.1,35-13.1s32.2,10,44.2,19.8h0ZM1069.1,121.3c-12,21.4-30.4,32-54.8,32-35,0-65.6-30.3-65.6-68.2s32.4-68.2,67-68.2,30.4,5.2,45.7,15.9l1.2.9-35.3,31.4c10.2-19-5.5-44.9-28.7-39.7-6.9,1.5-13,5-18.1,10.2-15.7,15.7-17.3,43.1-11.4,64.1,8.8,30.9,32.4,47.9,62.6,43.1,14.5-2.4,25.3-11.8,32.8-24.4l4.7,2.8ZM1106.6,102.6l-4.3,12.6c-3.5,10.7-7.7,22.7.4,32l.6.7v4.1h-24.2v-4.1c9.4-10.5,13.9-20.5,18.3-34l25.7-77.4,5.9-17.9h5.3l34.2,95c4.9,12.9,9.4,23.1,17.7,33.8l.4.4v4.1h-30.4v-4.1l.6-.7c.6-.6,1.2-1.3,1.4-2.2,2.2-5-1.8-15.7-3.7-20.3l-7.9-22.2h-40.2ZM1126,44.4l-17.5,52.3h36.3l-18.8-52.3ZM1225.7,137.9c0,3.1,0,7.2,2.8,9.2l1,.6v4.4h-25.3v-4.6l1-.4c2.8-2,3.1-5.9,3.1-9.2V33.1c0-3.3,0-7.4-3.1-9.1l-1-.6v-4.6h27.9c24.9,0,56.9,4.6,56.9,38.8s-15.5,33.8-32.4,37.7c38.1,20.5,60.7,95.9,104.8,86.3-23.2,12.2-41,3.5-56.7-12.2-11.4-11.3-21.8-26.8-32.8-40.5-8.4-10.5-29.1-34.9-43-32.9,0-5.7,9.8-5.4,13.9-6.5,18.3-4.6,28.9-17.2,28.9-31.8,0-31.8-23-32.9-46.1-32.9v113.3h0ZM1356.1,102.6l-4.3,12.6c-3.5,10.7-7.7,22.7.4,32l.6.7v4.1h-24.2v-4.1c9.4-10.5,13.9-20.5,18.3-34l25.7-77.4,5.9-17.9h5.3l34.2,95c4.9,12.9,9.4,23.1,17.7,33.8l.4.4v4.1h-30.4v-4.1l.6-.7c.6-.6,1.2-1.3,1.4-2.2,2.2-5-1.8-15.7-3.7-20.3l-7.9-22.2h-40.2ZM1375.5,44.4l-17.5,52.3h36.3l-18.8-52.3ZM1475.4,18.7l48.1,79.5,43-79.5h19.4v4.6l-.8.6c-3.1,1.7-3.1,5.9-3.1,9.1v104.8c0,3.3,0,7.2,3.1,9.1l.8.4v4.6h-25.1v-4.4l.8-.6c2.8-2,3.1-5.9,3.1-9.1V33.7l-44.6,82.8h-3.7l-46.5-75.6v89.1c.8,6.3,4.9,14.2,9.8,17l1,.4v4.6h-26.9v-4.6l1-.4c4.9-2.8,9-10.7,9.8-17V41.3c0-6.8-5.3-15-10.8-18.1v-4.6h21.6ZM1626.2,78.6v68h12.2c27.3,0,41.4-15.7,45.4-25.9l-4.9,31.4h-74v-4.4l.8-.6c2.8-2,3.1-6.1,3.1-9.1V32.9c0-3-.2-7.4-3.1-9.1l-.8-.6v-4.4h71.5l3.1,29.6c-4.9-8.9-13.9-24.4-41.2-24.4h-12.2v47.5h17.9c7.1,0,12-1.1,14.7-3.5,3.7-2.8,6.3-8.1,8.2-15.7h3.3l-11.4,56c.2-6.3.2-20.7-.4-22.4-.6-2.2-2.2-4.1-4.5-5.4-2.2-1.1-5.9-1.7-11-1.7h-16.7,0ZM1721.1,146.6h13.9c26.3,0,39.9-17.2,43.6-25.9l-4.7,31.4h-74.2v-4.6l1-.4c2.8-2,2.8-5.9,2.8-9.2V33.1c0-3.3,0-7.4-2.8-9.1l-1-.6v-4.6h25.1v4.6l-.8.6c-2.8,1.7-2.8,5.9-2.8,9.1v113.5h0ZM1821.9,102.6l-4.3,12.6c-3.5,10.7-7.7,22.7.4,32l.6.7v4.1h-24.2v-4.1c9.4-10.5,13.9-20.5,18.3-34l25.7-77.4,5.9-17.9h5.3l34.2,95c4.9,12.9,9.4,23.1,17.7,33.8l.4.4v4.1h-30.4v-4.1l.6-.7c.6-.6,1.2-1.3,1.4-2.2,2.2-5-1.8-15.7-3.7-20.3l-7.9-22.2h-40.2ZM1841.2,44.4l-17.5,52.3h36.3l-18.8-52.3Z"/>
    </clipPath>
    <clipPath id="clippath-3">
      <rect class="st0" x="1.1" y="-.1" width="1908" height="280"/>
    </clipPath>
  </defs>
  <g class="st5">
    <g class="st1">
      <image class="st2" width="1908" height="280" transform="translate(1.1 -.1)" xlink:href="header-1.png"/>
    </g>
  </g>
  <g class="st4">
    <g class="st3">
      <image class="st2" width="1908" height="280" transform="translate(1.1 -.1)" xlink:href="header-2.png"/>
    </g>
  </g>
</svg>