<?xml version="1.0" encoding="UTF-8"?>
<svg id="Camada_1" data-name="Camada 1" xmlns="http://www.w3.org/2000/svg" viewBox="0 0 688.15 890.24">
  <defs>
    <style>
      .cls-1 {
        fill: #111;
      }
    </style>
  </defs>
  <path class="cls-1" d="M657.61,655.65c-32.86-64.56-166.59-103.18-232.3-136.04v-90.2c3.64-6.16,6.94-12.81,9.9-19.89h10.85c40.93,0,151.6,3.46,151.6,61.1,0,23.06-20.75,44.38-44.96,44.38-13.26,0-40.93-5.76-40.93-21.9,0-8.07,6.34-14.99,14.99-14.99,12.1,0,19.02,11.53,19.02,22.48,12.11-.57,22.48-6.34,22.48-19.02,0-14.99-14.41-26.51-29.4-26.51-24.2,0-40.92,23.05-40.92,44.38,0,28.82,22.48,56.49,53.61,56.49,35.73,0,52.45-25.94,52.45-57.07,0-12.68-2.88-23.63-5.77-35.73-19.35-88.92-68.6-105.22-147.77-108.33,3.26-19.04,5-39.35,5.34-60.15,6.84-14.26,17.11-25.67,31.37-33.66-14.26-6.84-25.67-17.11-34.23-31.37-6.27-61.04-23.39-107.82-47.34-144.33C358.82,13.98,285.8-23.67,236.17,16.26l-53.63,41.65c-2.28,2.28-5.13,4.56-7.41,7.41-2.85-2.28-5.71-3.99-8.56-6.27C127.21,15.12,72.45-8.27,33.65,33.95c-38.79,42.78-7.98,107.82,38.8,120.93v86.15c-6.85,9.12-15.41,15.97-25.68,21.1,10.27,5.14,18.83,12.55,25.68,21.68v117.52c-2.86,1.14-5.14,2.85-7.99,5.13l-53.05,41.64c-4,3.43-7.42,6.85-11.41,11.98l22.81-18.25c15.98-5.71,31.95,1.71,49.64,15.4v62.18c0,7.99-1.72,14.84-6.28,20.54,10.27-5.7,19.97-10.27,19.97-29.67v-42.21c52.45,44.34,120.28,119.44,237.99,48.43-4.69,65.61,30.23,116.7,87.35,148.37v47.84c-7.49,9.8-17.87,17.87-29.4,23.63,11.53,5.19,21.33,13.84,29.4,23.63v50.15c-4.03,1.15-8.07.58-11.53.58-62.25,0-166-24.79-179.26-93.38,12.1-27.09,34.01-46.69,100.29-66.86-68.59-11.53-122.77,42.65-122.77,106.06,0,85.3,148.71,119.89,213.27,109.51,1.15,13.26,8.65,18.45,20.17,24.21-4.61-5.76-6.34-12.68-6.34-19.6v-5.76c250.16-24.21,185.03-139.49,262.84-179.84-13.25-6.91-24.2-16.71-30.54-29.39ZM72.45,136.63c-17.12-10.27-9.7-40.5,0-57.62v57.62ZM204.79,45.93c47.92-15.98,107.25,19.96,147.75,81.57,21.68,33.09,37.65,73.02,45.07,127.79h-45.64c-9.12-6.85-16.54-15.41-22.24-26.24-5.14,10.83-12.56,19.39-21.68,26.24h-41.65c-2.28-19.4-10.84-38.79-26.81-56.48,7.99-49.06-2.28-87.85-61.61-131.78l26.81-21.1ZM234.46,222.2c-.57,54.76-39.94,124.36-55.34,166.01-3.42,9.12-5.13,17.68-5.13,26.24-11.41-49.06,40.5-119.8,60.47-192.25ZM86.14,397.9v-112.38c6.84-9.7,15.97-17.68,26.81-23.39-10.84-5.7-19.97-13.12-26.81-22.82v-82.14c10.26.57,20.53-1.71,31.37-6.28,56.48-31.94,4-104.96-30.23-59.33,25.67,15.98,17.11,45.07-1.14,47.92V63.04c20.53-17.11,51.34-24.53,79.86-1.14,1.71,2.85,2.85,5.71,3.99,8.56-2.28,2.28-3.99,5.13-6.27,7.98l7.41-5.7c30.81,75.3-39.93,175.13-62.75,238.45-21.67,61.61,29.1,123.22,67.89,130.07,2.28,9.12,5.7,17.11,9.7,23.96-40.51-30.81-70.74-68.46-99.83-67.32ZM310.61,459.67c0,13.97,2.49,27.32,7.46,39.82-39.56,9.48-72.55,1.18-100.73-13.74-29.66-46.2,51.35-134.63,50.2-216.77h39.94c9.12,6.84,16.54,15.4,22.25,26.24,5.7-10.27,13.12-19.4,22.24-26.24h47.35c3.24,28.36,4.25,57.36,2.68,85.07-32.09-.52-75.83-2.43-87.93-35.02-3.46,5.18-5.19,10.37-5.19,16.71,0,17.87,12.1,36.31,25.94,48.42,17.82,16.41,37.55,22.9,60.11,24.76-5.99,28.17-15.58,52.99-29.27,71.7-.13.07-.25.14-.38.2-20.16-17.71-33.34-39.22-33.34-70.72,0-8.65,1.15-17.29,2.88-25.94-10.95,25.36-24.21,47.84-24.21,75.51ZM411.48,598.58c-29.97-14.98-58.22-36.89-72.63-66.28,20.18,21.32,46.11,36.89,72.63,50.14v16.14ZM368.62,483.67l31.84-24.73c3.76-3.01,7.32-6.38,10.66-10.07l.36,63.25c-15.76-9.12-30.47-18.17-42.86-28.45ZM425.31,809.54v-49.57c7.5-9.79,18.45-18.44,29.98-23.63-11.53-5.76-22.48-13.83-29.98-23.63v-40.35c46.69,23.06,160.82,44.38,170.62,99.14-50.15,27.67-112.98,34.59-170.62,38.04ZM640.31,736.92c-8.07,9.22-17.87,17.29-28.24,24.78,1.15-5.18,2.3-9.79,2.3-15.56,0-91.65-121.62-109.52-189.06-140.64v-16.72c54.76,24.21,158.52,53.61,197.13,95.69l-.57.57c11.53,5.19,19.02,32.28,19.02,43.81l-.58,8.07Z"/>
</svg>