<?xml version="1.0" encoding="UTF-8"?>
<svg id="Camada_1" data-name="Camada 1" xmlns="http://www.w3.org/2000/svg" viewBox="0 0 803.49 117.72">
  <defs>
    <style>
      .cls-1 {
        fill: #fff;
      }
    </style>
  </defs>
  <g id="Identificação">
    <g>
      <path class="cls-1" d="M21.35.73c12.95,0,25.91,5.66,32.3,17.33,2.37,4.38,3.56,9.12,3.56,14.14s-1.28,10.04-3.74,14.51c-6.48,11.5-19.34,16.88-32.11,16.88H0v-2.1l.46-.27c1.46-.82,1.46-2.83,1.46-4.29V7.48c0-1.46,0-3.38-1.46-4.29l-.46-.27V.73h21.35ZM10.77,3.38v57.75h10.58c16.51,0,27.1-12.95,27.1-28.92S37.86,3.38,21.35,3.38h-10.58Z"/>
      <path class="cls-1" d="M69.79,42.88l-1.92,5.29c-1.55,4.47-3.47,9.49.18,13.41l.27.27v1.73h-10.86v-1.73c4.2-4.38,6.2-8.58,8.21-14.23l11.49-32.39,2.65-7.48h2.37l15.33,39.78c2.19,5.38,4.2,9.67,7.94,14.14l.18.18v1.73h-13.59v-1.73l.27-.27c.27-.27.55-.55.64-.91,1-2.1-.82-6.57-1.64-8.48l-3.56-9.31h-17.97ZM78.45,18.52l-7.85,21.9h16.24l-8.39-21.9Z"/>
      <path class="cls-1" d="M117.49,54.65c.46,2.55,2.19,5.66,4.38,6.75l.46.27v1.92h-12.13v-1.92l.55-.27c2.19-1.09,3.92-4.2,4.38-6.75V18.06c0-3.01-1.55-6.75-4.38-8.21l-.55-.18v-1.92h9.12l33.66,42.7V16.97c-.27-2.65-2.1-5.84-4.29-7.02l-.46-.18v-2.01h12.04v2.01l-.46.18c-2.28,1.19-4.01,4.47-4.38,7.02v46.62h-2.46l-35.49-45.34v36.4Z"/>
      <path class="cls-1" d="M174.33,57.66c0,1.92,0,3.01,1.73,4.01v1.92h-11.22v-1.82c1.64-1.1,1.64-2.28,1.64-4.11V13.78c0-1.82,0-3.1-1.64-4.11v-1.92h11.22v1.92c-1.73,1-1.73,2.19-1.73,4.11v43.88Z"/>
      <path class="cls-1" d="M190.11,32.84v28.46h5.47c12.22,0,18.52-6.57,20.34-10.86l-2.19,13.14h-33.12v-1.82l.36-.27c1.28-.82,1.37-2.55,1.37-3.83V13.68c0-1.28-.09-3.1-1.37-3.83l-.36-.27v-1.82h32.02l1.37,12.41c-2.19-3.74-6.2-10.22-18.43-10.22h-5.47v19.89h8.03c3.19,0,5.38-.46,6.57-1.46,1.64-1.19,2.83-3.38,3.65-6.57h1.46l-5.11,23.45c.09-2.65.09-8.67-.18-9.4-.27-.91-1-1.73-2.01-2.28-1-.46-2.65-.73-4.93-.73h-7.48Z"/>
      <path class="cls-1" d="M230.06,61.31h6.2c11.77,0,17.88-7.21,19.52-10.86l-2.1,13.14h-33.21v-1.92l.46-.18c1.28-.82,1.28-2.46,1.28-3.83V13.78c0-1.37,0-3.1-1.28-3.83l-.46-.27v-1.92h11.22v1.92l-.36.27c-1.28.73-1.28,2.46-1.28,3.83v47.53Z"/>
      <path class="cls-1" d="M272.66,42.88l-1.92,5.29c-1.55,4.47-3.47,9.49.18,13.41l.27.27v1.73h-10.86v-1.73c4.2-4.38,6.2-8.58,8.21-14.23l11.49-32.39,2.65-7.48h2.37l15.33,39.78c2.19,5.38,4.2,9.67,7.94,14.14l.18.18v1.73h-13.59v-1.73l.27-.27c.27-.27.55-.55.64-.91,1-2.1-.82-6.57-1.64-8.48l-3.56-9.31h-17.97ZM281.33,18.52l-7.85,21.9h16.24l-8.39-21.9Z"/>
      <path class="cls-1" d="M394.08,8.3l.46.46-4.93,10.31c-1-6.84-8.3-16.06-17.52-16.06-5.75,0-12.59,2.74-13.23,9.21-1.55,16.24,35.76,10.95,35.76,33.39,0,12.22-11.5,18.61-22.63,18.61-10.22,0-15.42-4.29-20.53-9.67l4.84-11.22c2.46,7.85,8.12,17.24,19.25,17.24,5.47,0,12.59-3.38,13.32-9.4.27-2.19,0-4.2-1.09-6.02-2.92-4.93-11.77-7.66-16.79-9.76-8.76-3.47-17.33-7.85-17.33-18.61,0-4.29,1.82-8.3,4.93-11.31,4.2-4.01,10.04-5.47,15.69-5.47,6.93,0,14.41,4.2,19.8,8.3Z"/>
      <path class="cls-1" d="M453.1,50.72c-5.38,8.94-13.59,13.41-24.54,13.41-15.69,0-29.38-12.68-29.38-28.56s14.51-28.55,30.01-28.55c8.39,0,13.59,2.19,20.44,6.66l.55.36-15.78,13.14c4.56-7.94-2.46-18.79-12.86-16.6-3.1.64-5.84,2.1-8.12,4.29-7.02,6.57-7.75,18.06-5.11,26.82,3.92,12.95,14.51,20.07,28.01,18.06,6.48-1,11.31-4.93,14.69-10.22l2.1,1.19Z"/>
      <path class="cls-1" d="M466.42,42.88l-1.92,5.29c-1.55,4.47-3.47,9.49.18,13.41l.27.27v1.73h-10.86v-1.73c4.2-4.38,6.2-8.58,8.21-14.23l11.5-32.39,2.65-7.48h2.37l15.33,39.78c2.19,5.38,4.2,9.67,7.94,14.14l.18.18v1.73h-13.59v-1.73l.27-.27c.27-.27.55-.55.64-.91,1-2.1-.82-6.57-1.64-8.48l-3.56-9.31h-17.97ZM475.09,18.52l-7.85,21.9h16.24l-8.39-21.9Z"/>
      <path class="cls-1" d="M516.41,57.66c0,1.28,0,3.01,1.28,3.83l.46.27v1.82h-11.31v-1.92l.46-.18c1.28-.82,1.37-2.46,1.37-3.83V13.78c0-1.37,0-3.1-1.37-3.83l-.46-.27v-1.92h12.5c11.13,0,25.45,1.92,25.45,16.24,0,8.12-6.93,14.14-14.51,15.78,17.06,8.58,27.19,40.14,46.89,36.13-10.4,5.11-18.34,1.46-25.36-5.11-5.11-4.74-9.76-11.22-14.69-16.97-3.74-4.38-13.05-14.6-19.25-13.78,0-2.37,4.38-2.28,6.2-2.74,8.21-1.92,12.96-7.21,12.96-13.32,0-13.32-10.31-13.78-20.62-13.78v47.44Z"/>
      <path class="cls-1" d="M571.5,42.88l-1.92,5.29c-1.55,4.47-3.47,9.49.18,13.41l.27.27v1.73h-10.86v-1.73c4.2-4.38,6.2-8.58,8.21-14.23l11.5-32.39,2.65-7.48h2.37l15.33,39.78c2.19,5.38,4.2,9.67,7.94,14.14l.18.18v1.73h-13.59v-1.73l.27-.27c.27-.27.55-.55.64-.91,1-2.1-.82-6.57-1.64-8.48l-3.56-9.31h-17.97ZM580.17,18.52l-7.85,21.9h16.24l-8.39-21.9Z"/>
      <path class="cls-1" d="M621.58,7.76l21.53,33.3,19.25-33.3h8.67v1.92l-.36.27c-1.37.73-1.37,2.46-1.37,3.83v43.88c0,1.37,0,3.01,1.37,3.83l.36.18v1.92h-11.22v-1.82l.37-.27c1.28-.82,1.37-2.46,1.37-3.83V14.05l-19.98,34.67h-1.64l-20.8-31.66v37.31c.36,2.65,2.19,5.93,4.38,7.12l.46.18v1.92h-12.04v-1.92l.46-.18c2.19-1.19,4.01-4.47,4.38-7.12V17.24c0-2.83-2.37-6.29-4.84-7.57v-1.92h9.67Z"/>
      <path class="cls-1" d="M685.08,32.84v28.46h5.47c12.22,0,18.52-6.57,20.35-10.86l-2.19,13.14h-33.12v-1.82l.37-.27c1.28-.82,1.37-2.55,1.37-3.83V13.68c0-1.28-.09-3.1-1.37-3.83l-.37-.27v-1.82h32.02l1.37,12.41c-2.19-3.74-6.2-10.22-18.43-10.22h-5.47v19.89h8.03c3.19,0,5.38-.46,6.57-1.46,1.64-1.19,2.83-3.38,3.65-6.57h1.46l-5.11,23.45c.09-2.65.09-8.67-.18-9.4-.27-.91-1-1.73-2.01-2.28-1-.46-2.65-.73-4.93-.73h-7.48Z"/>
      <path class="cls-1" d="M725.03,61.31h6.2c11.77,0,17.88-7.21,19.52-10.86l-2.1,13.14h-33.21v-1.92l.46-.18c1.28-.82,1.28-2.46,1.28-3.83V13.78c0-1.37,0-3.1-1.28-3.83l-.46-.27v-1.92h11.22v1.92l-.37.27c-1.28.73-1.28,2.46-1.28,3.83v47.53Z"/>
      <path class="cls-1" d="M767.63,42.88l-1.92,5.29c-1.55,4.47-3.47,9.49.18,13.41l.27.27v1.73h-10.86v-1.73c4.2-4.38,6.2-8.58,8.21-14.23l11.5-32.39,2.65-7.48h2.37l15.33,39.78c2.19,5.38,4.2,9.67,7.94,14.14l.18.18v1.73h-13.59v-1.73l.27-.27c.27-.27.55-.55.64-.91,1-2.1-.82-6.57-1.64-8.48l-3.56-9.31h-17.97ZM776.3,18.52l-7.85,21.9h16.24l-8.39-21.9Z"/>
    </g>
    <g>
      <path class="cls-1" d="M418.91,102.78c-1.18,1.14-2.97,1.7-5.37,1.7h-3.97v8.62h-2.69v-20.64h6.66c2.33,0,4.1.56,5.32,1.69,1.21,1.13,1.82,2.58,1.82,4.35s-.59,3.14-1.76,4.28ZM416.85,101.28c.71-.65,1.07-1.58,1.07-2.78,0-2.55-1.46-3.82-4.38-3.82h-3.97v7.58h3.97c1.5,0,2.61-.33,3.32-.98Z"/>
      <path class="cls-1" d="M426.91,112.58c-1.08-.48-1.92-1.15-2.53-2.01-.61-.86-.93-1.85-.95-2.98h2.87c.1.97.5,1.78,1.2,2.44.7.66,1.72.99,3.07.99s2.29-.32,3.03-.96c.74-.64,1.11-1.47,1.11-2.47,0-.79-.22-1.43-.65-1.92s-.98-.87-1.63-1.13c-.65-.26-1.53-.53-2.64-.83-1.36-.36-2.45-.71-3.27-1.07-.82-.35-1.52-.91-2.1-1.67-.58-.76-.87-1.78-.87-3.06,0-1.13.28-2.12.86-2.99.57-.87,1.38-1.54,2.41-2.01,1.04-.47,2.22-.71,3.57-.71,1.93,0,3.52.48,4.75,1.45,1.23.97,1.93,2.25,2.09,3.85h-2.96c-.1-.79-.51-1.49-1.24-2.09-.73-.6-1.7-.9-2.9-.9-1.13,0-2.04.29-2.75.87-.71.58-1.07,1.4-1.07,2.44,0,.75.21,1.36.64,1.84s.95.83,1.57,1.08c.62.25,1.5.53,2.62.84,1.36.38,2.46.75,3.29,1.11.83.37,1.54.93,2.13,1.69.59.76.89,1.79.89,3.09,0,1.01-.27,1.95-.8,2.84s-1.32,1.61-2.37,2.16c-1.05.55-2.28.83-3.7.83s-2.58-.24-3.66-.73Z"/>
      <path class="cls-1" d="M444.1,92.46v20.64h-2.69v-20.64h2.69Z"/>
      <path class="cls-1" d="M449.04,97.33c.91-1.61,2.15-2.87,3.72-3.78,1.57-.91,3.31-1.36,5.23-1.36,2.25,0,4.22.54,5.89,1.63s2.9,2.63,3.67,4.62h-3.23c-.57-1.24-1.4-2.2-2.47-2.87-1.08-.67-2.36-1.01-3.86-1.01s-2.73.34-3.88,1.01c-1.15.67-2.04,1.62-2.7,2.86-.65,1.23-.98,2.68-.98,4.34s.33,3.08.98,4.31c.65,1.23,1.55,2.19,2.7,2.86,1.14.67,2.44,1.01,3.88,1.01s2.79-.33,3.86-.99,1.9-1.61,2.47-2.86h3.23c-.77,1.97-1.99,3.5-3.67,4.58-1.68,1.08-3.64,1.61-5.89,1.61-1.92,0-3.66-.45-5.23-1.35-1.57-.9-2.81-2.15-3.72-3.75-.91-1.6-1.36-3.41-1.36-5.42s.46-3.82,1.36-5.43Z"/>
      <path class="cls-1" d="M475.66,111.96c-1.58-.9-2.83-2.15-3.75-3.76-.92-1.61-1.38-3.42-1.38-5.43s.46-3.82,1.38-5.43c.92-1.61,2.17-2.86,3.75-3.76,1.58-.9,3.33-1.35,5.24-1.35s3.69.45,5.27,1.35c1.58.9,2.82,2.15,3.73,3.75.91,1.6,1.36,3.42,1.36,5.45s-.45,3.85-1.36,5.45c-.91,1.6-2.15,2.85-3.73,3.75-1.58.9-3.34,1.35-5.27,1.35s-3.66-.45-5.24-1.35ZM484.8,109.96c1.16-.67,2.06-1.63,2.72-2.87.66-1.24.99-2.68.99-4.32s-.33-3.1-.99-4.34c-.66-1.23-1.56-2.19-2.71-2.86-1.15-.67-2.45-1.01-3.91-1.01s-2.76.34-3.91,1.01c-1.14.67-2.05,1.62-2.71,2.86-.66,1.23-.99,2.68-.99,4.34s.33,3.08.99,4.32c.66,1.24,1.57,2.2,2.72,2.87,1.16.67,2.45,1.01,3.89,1.01s2.74-.34,3.89-1.01ZM483.87,87.99l-6.31,3.38v-2.01l6.31-3.7v2.34Z"/>
      <path class="cls-1" d="M497.52,110.91h7.22v2.19h-9.92v-20.64h2.69v18.45Z"/>
      <path class="cls-1" d="M511.73,111.96c-1.58-.9-2.83-2.15-3.75-3.76-.92-1.61-1.38-3.42-1.38-5.43s.46-3.82,1.38-5.43c.92-1.61,2.17-2.86,3.75-3.76,1.58-.9,3.33-1.35,5.24-1.35s3.69.45,5.27,1.35c1.58.9,2.82,2.15,3.73,3.75.91,1.6,1.36,3.42,1.36,5.45s-.45,3.85-1.36,5.45c-.91,1.6-2.15,2.85-3.73,3.75-1.58.9-3.34,1.35-5.27,1.35s-3.66-.45-5.24-1.35ZM520.87,109.96c1.16-.67,2.06-1.63,2.72-2.87.66-1.24.99-2.68.99-4.32s-.33-3.1-.99-4.34c-.66-1.23-1.56-2.19-2.71-2.86-1.15-.67-2.45-1.01-3.91-1.01s-2.76.34-3.91,1.01c-1.14.67-2.05,1.62-2.71,2.86-.66,1.23-.99,2.68-.99,4.34s.33,3.08.99,4.32c.66,1.24,1.57,2.2,2.72,2.87,1.16.67,2.45,1.01,3.89,1.01s2.74-.34,3.89-1.01Z"/>
      <path class="cls-1" d="M546.53,98.44c-.57-1.2-1.4-2.14-2.49-2.8-1.09-.66-2.35-.99-3.79-.99s-2.74.33-3.89.99c-1.15.66-2.06,1.61-2.72,2.84-.66,1.23-.99,2.66-.99,4.28s.33,3.04.99,4.26c.66,1.22,1.57,2.17,2.72,2.83,1.16.66,2.45.99,3.89.99,2.01,0,3.67-.6,4.97-1.81s2.06-2.83,2.28-4.89h-8.23v-2.19h11.11v2.07c-.16,1.7-.69,3.25-1.6,4.66-.91,1.41-2.1,2.53-3.58,3.35-1.48.82-3.13,1.23-4.94,1.23-1.92,0-3.66-.45-5.24-1.35-1.58-.9-2.83-2.15-3.75-3.75-.92-1.6-1.38-3.41-1.38-5.42s.46-3.82,1.38-5.43c.92-1.61,2.17-2.86,3.75-3.76,1.58-.9,3.33-1.35,5.24-1.35,2.19,0,4.13.54,5.82,1.63,1.69,1.09,2.92,2.62,3.69,4.59h-3.23Z"/>
      <path class="cls-1" d="M566.13,108.51h-9l-1.66,4.59h-2.84l7.46-20.52h3.11l7.43,20.52h-2.84l-1.66-4.59ZM565.36,106.32l-3.73-10.42-3.73,10.42h7.46Z"/>
      <path class="cls-1" d="M583.22,97.18c.83-1.61,1.98-2.87,3.46-3.78s3.15-1.36,5.01-1.36c2.43,0,4.44.56,6.03,1.69,1.59,1.13,2.75,2.69,3.48,4.68h-.59c-.63-1.76-1.71-3.17-3.23-4.23-1.52-1.07-3.42-1.6-5.69-1.6-1.7,0-3.24.41-4.62,1.23-1.38.82-2.47,1.99-3.27,3.52s-1.2,3.32-1.2,5.37.4,3.81,1.2,5.33c.8,1.52,1.9,2.69,3.29,3.51,1.39.82,2.93,1.23,4.61,1.23,2.27,0,4.17-.53,5.69-1.58,1.52-1.06,2.6-2.46,3.23-4.22h.59c-.73,1.99-1.89,3.55-3.48,4.66-1.59,1.12-3.6,1.67-6.03,1.67-1.86,0-3.52-.45-5.01-1.35-1.48-.9-2.64-2.15-3.46-3.76-.83-1.61-1.24-3.44-1.24-5.49s.41-3.91,1.24-5.52Z"/>
      <path class="cls-1" d="M616.89,113.1l-5.57-9.09h-5.24v9.09h-.59v-20.85h5.21c2.29,0,3.99.52,5.11,1.57s1.67,2.48,1.67,4.29c0,1.68-.47,3.02-1.42,4.03-.95,1.01-2.3,1.61-4.06,1.81l5.63,9.15h-.74ZM610.76,103.44c2.03,0,3.56-.48,4.58-1.45s1.52-2.26,1.52-3.88c0-3.51-2.05-5.27-6.16-5.27h-4.62v10.6h4.68Z"/>
      <path class="cls-1" d="M631.57,102.29c-1.13.95-2.78,1.42-4.97,1.42h-4.68v9.39h-.59v-20.85h5.27c2.29,0,3.97.5,5.05,1.51s1.61,2.42,1.61,4.23c0,1.92-.56,3.35-1.69,4.29ZM631.23,101.76c.96-.89,1.44-2.14,1.44-3.76s-.47-2.98-1.42-3.85c-.95-.87-2.5-1.3-4.65-1.3h-4.68v10.25h4.68c2.13,0,3.68-.44,4.63-1.33Z"/>
      <path class="cls-1" d="M645.64,96.99c.35-1.52,1.02-2.72,1.98-3.61s2.34-1.33,4.12-1.33,3.12.44,4.1,1.33,1.64,2.1,2,3.63c.36,1.53.53,3.4.53,5.61s-.18,4.15-.53,5.69c-.35,1.54-1.02,2.76-2,3.66-.98.9-2.35,1.35-4.1,1.35s-3.15-.45-4.12-1.35c-.97-.9-1.63-2.12-1.98-3.66-.36-1.54-.53-3.44-.53-5.69s.18-4.11.53-5.63ZM657.31,97.25c-.32-1.44-.91-2.58-1.79-3.42-.88-.84-2.14-1.26-3.78-1.26s-2.9.42-3.78,1.26c-.88.84-1.48,1.98-1.79,3.42-.32,1.44-.47,3.23-.47,5.36s.16,3.96.47,5.42c.32,1.46.91,2.62,1.79,3.46.88.85,2.14,1.27,3.78,1.27s2.9-.42,3.78-1.27c.88-.85,1.48-2,1.79-3.46.32-1.46.47-3.27.47-5.42s-.16-3.92-.47-5.36Z"/>
      <path class="cls-1" d="M673.7,93.88c-.92-.89-2.18-1.33-3.78-1.33-2.21,0-3.9.8-5.08,2.41-1.18,1.61-1.76,4.2-1.76,7.77,0,.69.01,1.21.03,1.57.26-1.54,1.02-2.77,2.29-3.69,1.27-.92,2.8-1.38,4.58-1.38,2.19,0,3.88.64,5.08,1.92,1.19,1.28,1.79,3.05,1.79,5.3,0,1.22-.23,2.35-.68,3.38-.45,1.03-1.18,1.86-2.19,2.5-1.01.64-2.29.96-3.85.96-2.94,0-4.95-.92-6.01-2.77s-1.6-4.34-1.6-7.48c0-3.53.58-6.26,1.73-8.17,1.16-1.91,3.05-2.87,5.67-2.87,1.78,0,3.18.5,4.2,1.51,1.03,1.01,1.65,2.38,1.87,4.12h-.59c-.22-1.62-.78-2.87-1.7-3.76ZM666.8,100.45c-1.02.45-1.86,1.14-2.52,2.04-.66.91-.99,2.02-.99,3.35,0,1.18.24,2.31.71,3.36.47,1.06,1.22,1.92,2.25,2.58,1.03.66,2.32.99,3.88.99,1.86,0,3.34-.56,4.46-1.69,1.12-1.13,1.67-2.66,1.67-4.62,0-2.17-.56-3.83-1.67-4.97-1.12-1.14-2.65-1.72-4.6-1.72-1.11,0-2.17.23-3.18.68Z"/>
      <path class="cls-1" d="M688.37,85.41l-8.26,32.31h-.59l8.2-32.31h.65Z"/>
      <path class="cls-1" d="M699.89,105.19c2.25-2.57,3.38-5.01,3.38-7.34,0-1.54-.41-2.8-1.24-3.79s-2.19-1.48-4.09-1.48-3.38.58-4.4,1.73c-1.02,1.15-1.59,2.68-1.73,4.57h-.59c.16-2.13.82-3.81,2-5.02,1.18-1.21,2.75-1.82,4.72-1.82,1.68,0,3.08.46,4.22,1.39s1.7,2.4,1.7,4.41c0,1.76-.62,3.57-1.86,5.45-1.24,1.88-2.78,3.62-4.62,5.23-1.84,1.61-3.67,2.96-5.51,4.04h12.7v.53h-13.83v-.33c3.85-2.49,6.9-5.01,9.15-7.58Z"/>
      <path class="cls-1" d="M706.49,92.78v-.53h3.73v20.85h-.59v-20.31h-3.14Z"/>
      <path class="cls-1" d="M713.19,92.78v-.53h3.73v20.85h-.59v-20.31h-3.14Z"/>
      <path class="cls-1" d="M723.46,93.58c1.18-1.03,2.77-1.54,4.77-1.54,1.86,0,3.3.48,4.32,1.45,1.03.97,1.54,2.2,1.54,3.7,0,1.26-.4,2.36-1.21,3.3-.81.94-2.13,1.49-3.97,1.64v.18c1.66.18,3,.74,4.03,1.67,1.03.94,1.54,2.21,1.54,3.81s-.52,2.92-1.57,3.95c-1.05,1.04-2.62,1.55-4.71,1.55-1.95,0-3.56-.53-4.81-1.58-1.25-1.06-2.05-2.54-2.38-4.46h.59c.3,1.62,1.01,2.93,2.15,3.94,1.13,1.01,2.62,1.51,4.46,1.51s3.27-.46,4.23-1.38c.97-.92,1.45-2.1,1.45-3.54,0-1.72-.68-3.02-2.04-3.92-1.36-.9-3.27-1.35-5.72-1.35h-.5v-.56h.53c4.9,0,7.34-1.59,7.34-4.77,0-1.38-.46-2.5-1.39-3.35-.93-.85-2.22-1.27-3.88-1.27s-3.01.42-4.17,1.27c-1.17.85-1.86,2.17-2.07,3.97h-.59c.2-1.8.89-3.21,2.07-4.23Z"/>
      <path class="cls-1" d="M749.71,93.88c-.92-.89-2.18-1.33-3.78-1.33-2.21,0-3.9.8-5.08,2.41-1.18,1.61-1.76,4.2-1.76,7.77,0,.69.01,1.21.03,1.57.26-1.54,1.02-2.77,2.29-3.69,1.27-.92,2.8-1.38,4.58-1.38,2.19,0,3.88.64,5.08,1.92,1.19,1.28,1.79,3.05,1.79,5.3,0,1.22-.23,2.35-.68,3.38-.45,1.03-1.18,1.86-2.19,2.5-1.01.64-2.29.96-3.85.96-2.94,0-4.95-.92-6.01-2.77s-1.6-4.34-1.6-7.48c0-3.53.58-6.26,1.73-8.17,1.16-1.91,3.05-2.87,5.67-2.87,1.78,0,3.18.5,4.2,1.51,1.03,1.01,1.65,2.38,1.87,4.12h-.59c-.22-1.62-.78-2.87-1.7-3.76ZM742.81,100.45c-1.02.45-1.86,1.14-2.52,2.04-.66.91-.99,2.02-.99,3.35,0,1.18.24,2.31.71,3.36.47,1.06,1.22,1.92,2.25,2.58,1.03.66,2.32.99,3.88.99,1.86,0,3.34-.56,4.46-1.69,1.12-1.13,1.67-2.66,1.67-4.62,0-2.17-.56-3.83-1.67-4.97-1.12-1.14-2.65-1.72-4.6-1.72-1.11,0-2.17.23-3.18.68Z"/>
      <path class="cls-1" d="M755.09,92.78v-.53h3.73v20.85h-.59v-20.31h-3.14Z"/>
      <path class="cls-1" d="M774.59,93.88c-.92-.89-2.18-1.33-3.78-1.33-2.21,0-3.9.8-5.08,2.41-1.18,1.61-1.76,4.2-1.76,7.77,0,.69.01,1.21.03,1.57.26-1.54,1.02-2.77,2.29-3.69,1.27-.92,2.8-1.38,4.58-1.38,2.19,0,3.88.64,5.08,1.92,1.19,1.28,1.79,3.05,1.79,5.3,0,1.22-.23,2.35-.68,3.38-.45,1.03-1.18,1.86-2.19,2.5-1.01.64-2.29.96-3.85.96-2.94,0-4.95-.92-6.01-2.77s-1.6-4.34-1.6-7.48c0-3.53.58-6.26,1.73-8.17,1.16-1.91,3.05-2.87,5.67-2.87,1.78,0,3.18.5,4.2,1.51,1.03,1.01,1.65,2.38,1.87,4.12h-.59c-.22-1.62-.78-2.87-1.7-3.76ZM767.69,100.45c-1.02.45-1.86,1.14-2.52,2.04-.66.91-.99,2.02-.99,3.35,0,1.18.24,2.31.71,3.36.47,1.06,1.22,1.92,2.25,2.58,1.03.66,2.32.99,3.88.99,1.86,0,3.34-.56,4.46-1.69,1.12-1.13,1.67-2.66,1.67-4.62,0-2.17-.56-3.83-1.67-4.97-1.12-1.14-2.65-1.72-4.6-1.72-1.11,0-2.17.23-3.18.68Z"/>
      <path class="cls-1" d="M779.96,92.78v-.53h3.73v20.85h-.59v-20.31h-3.14Z"/>
      <path class="cls-1" d="M790.24,93.58c1.18-1.03,2.77-1.54,4.77-1.54,1.86,0,3.3.48,4.32,1.45,1.03.97,1.54,2.2,1.54,3.7,0,1.26-.4,2.36-1.21,3.3-.81.94-2.13,1.49-3.97,1.64v.18c1.66.18,3,.74,4.03,1.67,1.03.94,1.54,2.21,1.54,3.81s-.52,2.92-1.57,3.95c-1.05,1.04-2.62,1.55-4.71,1.55-1.95,0-3.56-.53-4.81-1.58-1.25-1.06-2.05-2.54-2.38-4.46h.59c.3,1.62,1.01,2.93,2.15,3.94,1.13,1.01,2.62,1.51,4.46,1.51s3.27-.46,4.23-1.38c.97-.92,1.45-2.1,1.45-3.54,0-1.72-.68-3.02-2.04-3.92-1.36-.9-3.27-1.35-5.72-1.35h-.5v-.56h.53c4.9,0,7.34-1.59,7.34-4.77,0-1.38-.46-2.5-1.39-3.35-.93-.85-2.22-1.27-3.88-1.27s-3.01.42-4.17,1.27c-1.17.85-1.86,2.17-2.07,3.97h-.59c.2-1.8.89-3.21,2.07-4.23Z"/>
    </g>
  </g>
</svg>