<?xml version="1.0" encoding="UTF-8"?>
<svg id="Camada_1" data-name="Camada 1" xmlns="http://www.w3.org/2000/svg" viewBox="0 0 803.49 78.31">
  <defs>
    <style>
      .cls-1 {
        fill: #fff;
      }
    </style>
  </defs>
  <g id="Identificação">
    <g>
      <path class="cls-1" d="M21.35.73c12.95,0,25.91,5.66,32.3,17.33,2.37,4.38,3.56,9.12,3.56,14.14s-1.28,10.04-3.74,14.51c-6.48,11.5-19.34,16.88-32.11,16.88H0v-2.1l.46-.27c1.46-.82,1.46-2.83,1.46-4.29V7.48c0-1.46,0-3.38-1.46-4.29l-.46-.27V.73h21.35ZM10.77,3.38v57.75h10.58c16.51,0,27.1-12.95,27.1-28.92S37.86,3.38,21.35,3.38h-10.58Z"/>
      <path class="cls-1" d="M69.79,42.88l-1.92,5.29c-1.55,4.47-3.47,9.49.18,13.41l.27.27v1.73h-10.86v-1.73c4.2-4.38,6.2-8.58,8.21-14.23l11.49-32.39,2.65-7.48h2.37l15.33,39.78c2.19,5.38,4.2,9.67,7.94,14.14l.18.18v1.73h-13.59v-1.73l.27-.27c.27-.27.55-.55.64-.91,1-2.1-.82-6.57-1.64-8.48l-3.56-9.31h-17.97ZM78.45,18.52l-7.85,21.9h16.24l-8.39-21.9Z"/>
      <path class="cls-1" d="M117.49,54.65c.46,2.55,2.19,5.66,4.38,6.75l.46.27v1.92h-12.13v-1.92l.55-.27c2.19-1.09,3.92-4.2,4.38-6.75V18.06c0-3.01-1.55-6.75-4.38-8.21l-.55-.18v-1.92h9.12l33.66,42.7V16.97c-.27-2.65-2.1-5.84-4.29-7.02l-.46-.18v-2.01h12.04v2.01l-.46.18c-2.28,1.19-4.01,4.47-4.38,7.02v46.62h-2.46l-35.49-45.34v36.4Z"/>
      <path class="cls-1" d="M174.33,57.66c0,1.92,0,3.01,1.73,4.01v1.92h-11.22v-1.82c1.64-1.1,1.64-2.28,1.64-4.11V13.78c0-1.82,0-3.1-1.64-4.11v-1.92h11.22v1.92c-1.73,1-1.73,2.19-1.73,4.11v43.88Z"/>
      <path class="cls-1" d="M190.11,32.84v28.46h5.47c12.22,0,18.52-6.57,20.34-10.86l-2.19,13.14h-33.12v-1.82l.36-.27c1.28-.82,1.37-2.55,1.37-3.83V13.68c0-1.28-.09-3.1-1.37-3.83l-.36-.27v-1.82h32.02l1.37,12.41c-2.19-3.74-6.2-10.22-18.43-10.22h-5.47v19.89h8.03c3.19,0,5.38-.46,6.57-1.46,1.64-1.19,2.83-3.38,3.65-6.57h1.46l-5.11,23.45c.09-2.65.09-8.67-.18-9.4-.27-.91-1-1.73-2.01-2.28-1-.46-2.65-.73-4.93-.73h-7.48Z"/>
      <path class="cls-1" d="M230.06,61.31h6.2c11.77,0,17.88-7.21,19.52-10.86l-2.1,13.14h-33.21v-1.92l.46-.18c1.28-.82,1.28-2.46,1.28-3.83V13.78c0-1.37,0-3.1-1.28-3.83l-.46-.27v-1.92h11.22v1.92l-.36.27c-1.28.73-1.28,2.46-1.28,3.83v47.53Z"/>
      <path class="cls-1" d="M272.66,42.88l-1.92,5.29c-1.55,4.47-3.47,9.49.18,13.41l.27.27v1.73h-10.86v-1.73c4.2-4.38,6.2-8.58,8.21-14.23l11.49-32.39,2.65-7.48h2.37l15.33,39.78c2.19,5.38,4.2,9.67,7.94,14.14l.18.18v1.73h-13.59v-1.73l.27-.27c.27-.27.55-.55.64-.91,1-2.1-.82-6.57-1.64-8.48l-3.56-9.31h-17.97ZM281.33,18.52l-7.85,21.9h16.24l-8.39-21.9Z"/>
      <path class="cls-1" d="M394.08,8.3l.46.46-4.93,10.31c-1-6.84-8.3-16.06-17.52-16.06-5.75,0-12.59,2.74-13.23,9.21-1.55,16.24,35.76,10.95,35.76,33.39,0,12.22-11.5,18.61-22.63,18.61-10.22,0-15.42-4.29-20.53-9.67l4.84-11.22c2.46,7.85,8.12,17.24,19.25,17.24,5.47,0,12.59-3.38,13.32-9.4.27-2.19,0-4.2-1.09-6.02-2.92-4.93-11.77-7.66-16.79-9.76-8.76-3.47-17.33-7.85-17.33-18.61,0-4.29,1.82-8.3,4.93-11.31,4.2-4.01,10.04-5.47,15.69-5.47,6.93,0,14.41,4.2,19.8,8.3Z"/>
      <path class="cls-1" d="M453.1,50.72c-5.38,8.94-13.59,13.41-24.54,13.41-15.69,0-29.38-12.68-29.38-28.56s14.51-28.55,30.01-28.55c8.39,0,13.59,2.19,20.44,6.66l.55.36-15.78,13.14c4.56-7.94-2.46-18.79-12.86-16.6-3.1.64-5.84,2.1-8.12,4.29-7.02,6.57-7.75,18.06-5.11,26.82,3.92,12.95,14.51,20.07,28.01,18.06,6.48-1,11.31-4.93,14.69-10.22l2.1,1.19Z"/>
      <path class="cls-1" d="M466.42,42.88l-1.92,5.29c-1.55,4.47-3.47,9.49.18,13.41l.27.27v1.73h-10.86v-1.73c4.2-4.38,6.2-8.58,8.21-14.23l11.5-32.39,2.65-7.48h2.37l15.33,39.78c2.19,5.38,4.2,9.67,7.94,14.14l.18.18v1.73h-13.59v-1.73l.27-.27c.27-.27.55-.55.64-.91,1-2.1-.82-6.57-1.64-8.48l-3.56-9.31h-17.97ZM475.09,18.52l-7.85,21.9h16.24l-8.39-21.9Z"/>
      <path class="cls-1" d="M516.41,57.66c0,1.28,0,3.01,1.28,3.83l.46.27v1.82h-11.31v-1.92l.46-.18c1.28-.82,1.37-2.46,1.37-3.83V13.78c0-1.37,0-3.1-1.37-3.83l-.46-.27v-1.92h12.5c11.13,0,25.45,1.92,25.45,16.24,0,8.12-6.93,14.14-14.51,15.78,17.06,8.58,27.19,40.14,46.89,36.13-10.4,5.11-18.34,1.46-25.36-5.11-5.11-4.74-9.76-11.22-14.69-16.97-3.74-4.38-13.05-14.6-19.25-13.78,0-2.37,4.38-2.28,6.2-2.74,8.21-1.92,12.96-7.21,12.96-13.32,0-13.32-10.31-13.78-20.62-13.78v47.44Z"/>
      <path class="cls-1" d="M571.5,42.88l-1.92,5.29c-1.55,4.47-3.47,9.49.18,13.41l.27.27v1.73h-10.86v-1.73c4.2-4.38,6.2-8.58,8.21-14.23l11.5-32.39,2.65-7.48h2.37l15.33,39.78c2.19,5.38,4.2,9.67,7.94,14.14l.18.18v1.73h-13.59v-1.73l.27-.27c.27-.27.55-.55.64-.91,1-2.1-.82-6.57-1.64-8.48l-3.56-9.31h-17.97ZM580.17,18.52l-7.85,21.9h16.24l-8.39-21.9Z"/>
      <path class="cls-1" d="M621.58,7.76l21.53,33.3,19.25-33.3h8.67v1.92l-.36.27c-1.37.73-1.37,2.46-1.37,3.83v43.88c0,1.37,0,3.01,1.37,3.83l.36.18v1.92h-11.22v-1.82l.37-.27c1.28-.82,1.37-2.46,1.37-3.83V14.05l-19.98,34.67h-1.64l-20.8-31.66v37.31c.36,2.65,2.19,5.93,4.38,7.12l.46.18v1.92h-12.04v-1.92l.46-.18c2.19-1.19,4.01-4.47,4.38-7.12V17.24c0-2.83-2.37-6.29-4.84-7.57v-1.92h9.67Z"/>
      <path class="cls-1" d="M685.08,32.84v28.46h5.47c12.22,0,18.52-6.57,20.35-10.86l-2.19,13.14h-33.12v-1.82l.37-.27c1.28-.82,1.37-2.55,1.37-3.83V13.68c0-1.28-.09-3.1-1.37-3.83l-.37-.27v-1.82h32.02l1.37,12.41c-2.19-3.74-6.2-10.22-18.43-10.22h-5.47v19.89h8.03c3.19,0,5.38-.46,6.57-1.46,1.64-1.19,2.83-3.38,3.65-6.57h1.46l-5.11,23.45c.09-2.65.09-8.67-.18-9.4-.27-.91-1-1.73-2.01-2.28-1-.46-2.65-.73-4.93-.73h-7.48Z"/>
      <path class="cls-1" d="M725.03,61.31h6.2c11.77,0,17.88-7.21,19.52-10.86l-2.1,13.14h-33.21v-1.92l.46-.18c1.28-.82,1.28-2.46,1.28-3.83V13.78c0-1.37,0-3.1-1.28-3.83l-.46-.27v-1.92h11.22v1.92l-.37.27c-1.28.73-1.28,2.46-1.28,3.83v47.53Z"/>
      <path class="cls-1" d="M767.63,42.88l-1.92,5.29c-1.55,4.47-3.47,9.49.18,13.41l.27.27v1.73h-10.86v-1.73c4.2-4.38,6.2-8.58,8.21-14.23l11.5-32.39,2.65-7.48h2.37l15.33,39.78c2.19,5.38,4.2,9.67,7.94,14.14l.18.18v1.73h-13.59v-1.73l.27-.27c.27-.27.55-.55.64-.91,1-2.1-.82-6.57-1.64-8.48l-3.56-9.31h-17.97ZM776.3,18.52l-7.85,21.9h16.24l-8.39-21.9Z"/>
    </g>
  </g>
</svg>